/* XPM */
static char *freeimage[] = {
/* width height num_colors chars_per_pixel */
"16 16 62 1",
/* colors */
"  c #ffffff",
". c #fdd9ad",
"X c #fbb96a",
"o c #fab35c",
"O c #fab25c",
"+ c #fbb969",
"@ c #fdd9ae",
"# c #feecd6",
"$ c #faa640",
"% c #f99925",
"& c #fbad4e",
"* c #fdc684",
"= c #fbac4e",
"- c #fba740",
"; c #f99e33",
": c #fbac4f",
"> c #f89f32",
", c #faac4e",
"< c #fff8f1",
"1 c #fef3e4",
"2 c #fed9ad",
"3 c #fef2e3",
"4 c #fef8f1",
"5 c #faac4f",
"6 c #f99924",
"7 c #fbbf78",
"8 c #fa9f33",
"9 c #fca741",
"0 c #fcc077",
"q c #fff3e3",
"w c #fcb969",
"e c #fbba69",
"r c #fcba6a",
"t c #fba640",
"y c #fbb35c",
"u c #fcc684",
"i c #faa541",
"p c #fdcd93",
"a c #fcc685",
"s c #fab25b",
"d c #fef2e4",
"f c #f99a26",
"g c #f99926",
"h c #fa9a25",
"j c #f99825",
"k c #fddaad",
"l c #fba133",
"z c #fc9c26",
"x c #fa9925",
"c c #fedfba",
"v c #faa641",
"b c #fff9f1",
"n c #fdcc92",
"m c #f9a541",
"M c #f79824",
"N c #fee0bb",
"B c #faa740",
"V c #f89925",
"C c #f79825",
"Z c #fbb25b",
"A c #fbb25c",
"S c #fddfbb",
/* pixels */
"                ",
"     .XoO+@     ",
"   #$%&**=%-#   ",
"  #;:#    #:>#  ",
"  $,<123   45$  ",
" @6# 47890q #%@ ",
" w,   0e rt  =w ",
" yu   iyp,y  ao ",
" s*  df@pg.  uO ",
" +& #Xh  5O  =X ",
" @j#dk+lzxc #%. ",
"  v=b   44 nm$  ",
"  #;,#    #iM>N ",
"   #-%,uu&%BVCa ",
"     @XZAX@ S0< ",
"                "
};
