/* XPM */
static char *qbitcoin128[] = {
/* columns rows colors chars-per-pixel */
"128 128 27 1 ",
"  c #FD9B1F",
". c #EE9F2E",
"X c #F79726",
"o c #F89726",
"O c #F79926",
"+ c #F99925",
"@ c #F89728",
"# c #F49C2A",
"$ c #FB9B29",
"% c #ED9F31",
"& c #F19F31",
"* c #FB9E32",
"= c #EEA02E",
"- c #FFA226",
"; c #F2A02C",
": c #FFA229",
"> c #FFA92C",
", c #EFA232",
"< c #E6A33E",
"1 c #F3A131",
"2 c #FCA133",
"3 c #F4A33A",
"4 c #FAA43A",
"5 c #F0A541",
"6 c #F9A445",
"7 c #F4A842",
"8 c None",
/* pixels */
"88888888888888888888888888888888888888888888888888888888888888888888888888888888888888888888888888888888888888888888888888888888",
"88888888888888888888888888888888888888888888888888888888888888888888888888888888888888888888888888888888888888888888888888888888",
"88888888888888888888888888888888888888888888888888888888888888888888888888888888888888888888888888888888888888888888888888888888",
"88888888888888888888888888888888888888888888888888888888888888888888888888888888888888888888888888888888888888888888888888888888",
"88888888888888888888888888888888888888888888888888888888888888888888888888888888888888888888888888888888888888888888888888888888",
"88888888888888888888888888888888888888888888888888888888888888888888888888888888888888888888888888888888888888888888888888888888",
"88888888888888888888888888888888888888888888888888888888888888888888888888888888888888888888888888888888888888888888888888888888",
"88888888888888888888888888888888888888888888888888888888888888888888888888888888888888888888888888888888888888888888888888888888",
"88888888888888888888888888888888888888888888888888888888888888888888888888888888888888888888888888888888888888888888888888888888",
"8888888888888888888888888888888888888888888888888888888874 $$$$++$$+$ 4#88888888888888888888888888888888888888888888888888888888",
"888888888888888888888888888888888888888888888888888,$ ------$-$$-$$--$--::+$,888888888888888888888888888888888888888888888888888",
"88888888888888888888888888888888888888888888888;1$::$+XXX++o+++X++o+++X++++$--$;;88888888888888888888888888888888888888888888888",
"88888888888888888888888888888888888888888888##::$++XX+X+X++X+++X+++o+X+++X+X++X$-:##88888888888888888888888888888888888888888888",
"8888888888888888888888888888888888888888881+-$XX+++X+++++oX++XX++oo+X++X++XX+++++o$-$1888888888888888888888888888888888888888888",
"8888888888888888888888888888888888888888*:-+XX+++++++++XX++++X++++++X++X+++++X+++XoX+-:$8888888888888888888888888888888888888888",
"88888888888888888888888888888888888888O-$o++++XX+++++XX++X+XX++XXX+o++X++++X+++++X+++++$-#88888888888888888888888888888888888888",
"888888888888888888888888888888888888;-$++++X+X+++XX+++++X+++X+++++++X++X+X++X++X+X+X++XXX -#888888888888888888888888888888888888",
"8888888888888888888888888888888888,$-XXX+++++X+XX+++++++++X+++X++X+++X++++X++X+X+++XX++++X+-#,8888888888888888888888888888888888",
"888888888888888888888888888888888#- X+o++XX+X++++++X+X++X+++XX+oX+X++ X++++++X++XX++ XX+X++Xo-$888888888888888888888888888888888",
"88888888888888888888888888888888+ X++X+X++X+++X++X++XX+$$$----:----:--$+++++++X+++X+X++X++X++o$-,8888888888888888888888888888888",
"888888888888888888888888888888;:X+XXX+++X+++X+X+++++$--+ +$$8++++++8+$$++-:$++++X++XX+X++X+++XX+:#888888888888888888888888888888",
"88888888888888888888888888888$-+++++++XXX+X+X+X ++-+$$88888888888888888888+$+--+++X+X+X+X++XX+X+@--88888888888888888888888888888",
"8888888888888888888888888888$$+++XX+X+++++XX++$-$$8888888888888888888888888888+$-+++X++XX++X++X+XX$*8888888888888888888888888888",
"888888888888888888888888888:+X+X+X++X+X+X+++ -+$88888888888888888888888888888888++-+ +X+++X++X+X++++:888888888888888888888888888",
"88888888888888888888888883-+o++XX+XX++++++$:$88888888888888888888888888888888888888$:$++++++X++++XX+ $,8888888888888888888888888",
"8888888888888888888888888>+@+XX++++++X+++-$888888888888888888888888888888888888888888+:+++X+++X+X+++XX>8888888888888888888888888",
"888888888888888888888888$++++X+++X++X+X-$$88888888888888888888888888888888888888888888-$$X+++++X++XX+++$888888888888888888888888",
"88888888888888888888888$+++++++X++++X+-+888888888888888888888888888888888888888888888888+-+XX+X++X+++++$$88888888888888888888888",
"8888888888888888888888$$+++XX++X+X++$-$88888888888888888888888888888888888888888888888888-$$+++o+XX++++X++8888888888888888888888",
"888888888888888888888--XXX+++X++o+X$$888888888888888888888888888888888888888888888888888888$-+X++++X+X+X+$-888888888888888888888",
"88888888888888888888# X++XX++XX+++:+88888888888888888888888888888888888888888888888888888888+-++X+++X++X+o-;88888888888888888888",
"8888888888888888888,-X+X+++X+++X+:$8888888888888888888888888888888888888888888888888888888888$-++XX++X++++o:,8888888888888888888",
"8888888888888888888$+++X++X X+Xo:$888888888888888888888888888888888888888888888888888888888888$:X+X+++X+X+X+ 8888888888888888888",
"888888888888888888#$++X++XXX++o:$88888888888888888888888888888888888888888888888888888888888888$-X+oX+X+XX+X$#888888888888888888",
"88888888888888888=-X+++X+XX++o-$8888888888888888888888888888888888888888888888888888888888888888$-++++++X +X+:;88888888888888888",
"88888888888888888+++++++++X++:+888888888888888888888888888888888888888888888888888888888888888888+-XXX+X++X++++88888888888888888",
"8888888888888888.-X+++X+X+++$$8888888888888888$-+$ 88888888888888888888888888888888888888888888888$$+X+++X++++-#8888888888888888",
"8888888888888888-++XXX++X+++-88888888888888888$++$--+++88888888888888888888888888888888888888888888-+++XX++XX++-8888888888888888",
"888888888888888# +X+ X+X++X-$8888888888888888+-++++++$--++$8888888888888888888888888888888888888888$-++XX++X++X #888888888888888",
"888888888888888-X++XXX+XX+$+88888888888888888+>+++++++X++$:-$$$+888888888888888888888888888888888888+$++++X++XX+:888888888888888",
"88888888888888$-X+XX++X++++8888888888888888888$--$+++++X+++++$---++$888888888888888888888888888888888+++++X++X+X$$88888888888888",
"88888888888888-oX++++X+++:$888888888888888888888$$-+++++++XX+XXX++$-:++$88888888888888888888888888888$:+++X++XX++:88888888888888",
"8888888888888,-+X++X+X+X$$8888888888888888888888888$++++X++++++++++XX+---++888888888888888888888888888$$XX+++++++-18888888888888",
"8888888888888++X++X+X++X-888888888888888888888888888$++++XX+++++++o+++++X+--++8888888888888888888888888-X++XX+XX++$8888888888888",
"888888888888%:+++X+++++$+888888888888888888888888888 $+X++X++++Xooo+++X++X+ $-++88888888888888888888888+$+++X+++X+:,888888888888",
"888888888888O$@+X++X+++-8888888888888888888888888888 +++X++X++$---+@XX+XX+X++o+-$$8888888888888888888888-+X++XX++X$O888888888888",
"888888888888:X++X++X++$+8888888888888888888888888888@++XX++X@$$8**$:-$X+X++X+++++:$888888888888888888888+$++++XXX++:888888888888",
"88888888888=-++X++X+++-$8888888888888888888888888888$++++X++@:*888884:$-X+X+++++++$-88888888888888888888$-++X++++++:=88888888888",
"88888888888#$+X++X+++++88888888888888888888888888888-++X+X+X $888888888*$$+o++X+X+XX 88888888888888888888++++++XX++$188888888888",
"88888888888$+$++X+X+X+$8888888888888888888888888888$-+X++XX+$@888888888882-++XX+++++$$8888888888888888888++XXX+++X+o$88888888888",
"88888888888-+++X+++++:88888888888888888888888888888+$++XX+++-28888888888884-+X+++XX++-+8888888888888888888-++X+X+X++:88888888888",
"8888888888,-++X++XX++$88888888888888888888888888888++X+++X++-888888888888884$++X+X+++++8888888888888888888+++++XX+++-18888888888",
"8888888888@$X++X++++$$88888888888888888888888888888-+++X+X++$888888888888888$+++X+XX++-8888888888888888888$-+X+++++X$+8888888888",
"8888888888O$+X++XX+X:$8888888888888888888888888888+:++X++X++*888888888888888:$X+++++++: 888888888888888888$:X+X++X+X++8888888888",
"8888888888-X+XX++X++:88888888888888888888888888888+$++++X++-2888888888888888:-+++XX+++:$8888888888888888888:+XX+XX+++-8888888888",
"888888888<-X++++++++$88888888888888888888888888888X++X++++o-4888888888888888*$X++X++XX:+8888888888888888888++++X+++X+:<888888888",
"8888888883-+X++XXX+++88888888888888888888888888888:++X++XX+ 8888888888888888$++++X++X+:88888888888888888888+++++X++X+-4888888888",
"8888888882-++XX++++$$8888888888888888888888888888$-++XX+++$X8888888888888888>@o++XX+X+$88888888888888888888$$+X+++X++-2888888888",
"888888888 -+XXX++X+-$8888888888888888888888888888$$+++++X+$:888888888888888$+o+++++++ +88888888888888888888$-++++X+++-+888888888",
"888888888+$X X+XX++-$8888888888888888888888888888+++X+XX+X++$*888888888888*$@++oX+XXX- 88888888888888888888$-+++X++++$$888888888",
"888888888$$+++++++X-+8888888888888888888888888888-+++++++X+X$--$$$26883*$-++++o+++X+$$888888888888888888888$ X+X+++Xo$$888888888",
"888888888$$+++X++X+-8888888888888888888888888888$-++++X++++X++++$--::::-$o+X++o+++++-88888888888888888888888-X+++XX+o-$888888888",
"888888888$-++++XXX+-+888888888888888888888888888+$++++X+++++++X+X++oooo+@++++++o +$$88888888888888888888888 -+X++X+++$$888888888",
"888888888$$+++++++X-+888888888888888888888888888++++X++X+X+++X++XX++o+++++X+XX++$-$888888888888888888888888+-+++X++X+$$888888888",
"888888888$$X+XX++++-+888888888888888888888888888-XX++XX+++*@::$+++X+++++X+X+X+++$$8888888888888888888888888+:+X+++X+o$$888888888",
"888888888 $+X++++++-+88888888888888888888888888$-++X+++++*888*:$:-+Xo++++X+++X+-$88888888888888888888888888+-+++X++X+$$888888888",
"888888888$-++++X+++:888888888888888888888888888+$+++X+++$:88888882$:$+@+XX+XX+++$888888888888888888888888888:++XX++X+-$888888888",
"888888888$$X+X+XX++:$88888888888888888888888888+++X++X++:*88888888882:$+++X+++X+$$8888888888888888888888888+-++++X+++$$888888888",
"888888888$-++X++++X-$88888888888888888888888888:+++XX+X+$88888888888882-X++XX XX++$888888888888888888888888$ X+++XX+X +888888888",
"888888888$$++X+XX+X-$8888888888888888888888888$-++X+++++*888888888888884-X+++X+X+++$88888888888888888888888$-+XX+++X+- 888888888",
"8888888882 +X+++++X$+8888888888888888888888888+$+X+++X+:$8888888888888888:+X+XX++++$+8888888888888888888888+$+++X++++-;888888888",
"8888888881-+++X++++++8888888888888888888888888+++++XX++:888888888888888884-X++X+++++:8888888888888888888888 $+X++XX++-3888888888",
"888888888<:o++X++X+++8888888888888888888888888-++X+X++X+888888888888888888$$++o+++X+ +888888888888888888888$X++X+X+++:8888888888",
"8888888888:+o++XX X+-8888888888888888888888882-++++XX+$+888888888888888888:$+oo+X+++++888888888888888888888-+X++++X+o:8888888888",
"8888888888$++X++XX+X-$88888888888888888888888$$+X+++++-:8888888888888888884-o+++X++X+$88888888888888888888$:++X++X+++O8888888888",
"8888888888$$X+X+X+X+$$8888888888888888888888+$+++XX++X:8888888888888888888*-+X+X++X+X-88888888888888888888$$X++X++++$$8888888888",
"8888888888,-+++X+++++$888888888888888$>-++++$XX++Xo+++$8888888888888888888$+X+X++X+++$88888888888888888888++++++XX+X-18888888888",
"88888888888-XX++XX+X+-888888888888888:++X+$+++++++++++$8888888888888888888: +XX++++X++88888888888888888888-+X+X+++++-88888888888",
"88888888888$X++X+X++o-+8888888888888+$+X X+X+++XX++++$4888888888888888888*$+X++X++++$$8888888888888888888$-+++X+X++X$88888888888",
"88888888888#$++X++o+++$8888888888888$+X++X++++X++X++++@$48888888888888882$++++X+++++-+8888888888888888888$+++X+X+++$188888888888",
"88888888888,:+++XX++XX-+888888888888$>$$ ++++X++X+XX+++$--+*$*888888884$$ X++XX++X+X$8888888888888888888+-XX+XX+XX+-=88888888888",
"888888888888:X++XXX++X-O8888888888888+$ $--$X++X+o++X++X++++--:$$@$$$:-+X++XX+++X++-+8888888888888888888X XXX++X++X-888888888888",
"888888888888O-XX XX+XXX-88888888888888888+$$--$ +++++++X++++XXXX++++X+++X++X+++X+++$88888888888888888888:+X +X+++X+$888888888888",
"888888888888,:XXX++X XO $88888888888888888888+++--++XX++++++XX +$+++++++++X++XX++X- 8888888888888888888$+++X++X+++:1888888888888",
"8888888888888++++X++X++X:888888888888888888888888$+-:$+XX++++++++X+++X+X+++++++++$$88888888888888888888-O+++++XX++$8888888888888",
"8888888888888,-+X++X+X++$$88888888888888888888888888$++--$++++++++Xo+++++++X++++-$88888888888888888888$$$+++X++++-,8888888888888",
"88888888888888-o+X+XX++X+-+88888888888888888888888888888+$+:-$++X++oX+X+++++++$:$88888888888888888888$-X++++X++XX-88888888888888",
"88888888888888$$X+X+X++X+++88888888888888888888888888888888++++-----$++++++$--$+888888888888888888888+X+XX+X+X+X$+88888888888888",
"888888888888888:++++++++++$$8888888888888888888888888888888888888+$$+++$+++$+88888888888888888888888$-+++X+X++++:888888888888888",
"888888888888888#$X++X+X++++-$88888888888888888888888888888888888888888888888888888888888888888$$$88$:++X+XX++XX-#888888888888888",
"8888888888888888-+++++XX++++-888888888888888888888888888888888888888888888888888888888888888$---:+$++X++X++XX++-8888888888888888",
"8888888888888888#-++X+++++++$+8888888888888888888888888888888888888888888888888888888888888$$XX+++$+++X+++X++X ;8888888888888888",
"88888888888888888$+O+XX++X++X$$88888888888888888888888888888888888888888888888888888888888 :+++XX+X++X++X+XX++$88888888888888888",
"88888888888888888,:++++XX++X+X:$8888888888888888888888888888888888888888888888888888888888$++++X+++++++X++++o:=88888888888888888",
"888888888888888888O X+++X++X+++:$888888888888888888888888888888888888888888888888888888888+++++++X+XX++X++++$$888888888888888888",
"8888888888888888888+XXX+++X+X+++:+88888888888888888888888888888888888888888888888888888888+$+++XX+X+++X+++++$8888888888888888888",
"8888888888888888888,:++X+XX+++X+X-+8888888888888888888888888888888888888888888888888888888+:+XX+++++X+X+XXX-=8888888888888888888",
"88888888888888888888;-++++++X++X++:+8888888888888888888888888888888888888888888888888888888$+X X+XX++XX  XO#$+$88888888888888888",
"888888888888888888888$$+X+++X++X++++$888888888888888888888888888888888888888888888888888888+X+++X++X+XXXXOOO+$- $888888888888888",
"8888888888888888888888$++X+++X++++++$$-88888888888888888888888888888888888888888888888888$ +X+X++XX+X+XXXO#X++++:$88888888888888",
"88888888888888888888888:+XX+++X+X++X++- 888888888888888888888888888888888888888888888888$-++++X+X++O++X+X#X+XXXO+:+8888888888888",
"888888888888888888888888 X++X++X++X++++$$+88888888888888888888888888888888888888888888+$-+++X++X++XOX+XXO+XXOX X++-+888888888888",
"888888888888888888888888<>++X++X+XX++XX++-$888888888888888888888888888888888888888888+-+++++X++XX XXOOO#X++O+XXX++++888888888888",
"88888888888888888888888883 ++X++X+++X+++++$-$88888888888888888888888888888888888888$-$X+XX+X+X++XXX XOOO+X++X+ X+++--88888888888",
"888888888888888888888888888:++++++XX+X+XXXX $-$+88888888888888888888888888888888$$-$++++X+++X+X+X XXX#XX+X+++X++++++$88888888888",
"8888888888888888888888888888$-oX+X+++++X+XXX++$-+$8888888888888888888888888888++-$X++++X+XX+X++XOXOXXXX+X+ XX++X+++++88888888888",
"88888888888888888888888888888$-o++X+XX+++X++++X++$:$$+88888888888888888888++$:-+++++XXX+++X+++X+XXO#+++XX XXO++X++++$88888888888",
"888888888888888888888888888888;-+X+++++XX+++++++++++$-- +$$$8++++++8$$$++-: +X++++++XX XX+++X++XX#OXX+X+XXXX+X+++X++$88888888888",
"8888888888888888888888888888888,:$@+X++++++XX++X++++XX++$-$---------:--++X++ XX++XX++++X++++++$:#X++++X+XOX+X+OX+++++88888888888",
"888888888888888888888888888888888-:+++X++XX+++X++++XX+++++++++XX+X++++++++X+X+++X++++X++X+XX+:$8# +++++X X++ XXXX+++$88888888888",
"8888888888888888888888888888888888;$-X+++X++X++X++++++XX+++X+++++++X+++++X++X++X+++XX+X+++X:$;88+-+++X++XOOXXO+X+++-$88888888888",
"888888888888888888888888888888888888#$ XX++X++X++++XX+++++X+++X+X+X+X+o+X+XX+XX++XX+++XX+$-#88888$++X++XXX++XXX +++$888888888888",
"88888888888888888888888888888888888888$:$XXX+++o+XX++XX+XXX+X+X++++X++X++X+X++X++X++X+@$:;8888888$:++X+++++X++++++-+888888888888",
"8888888888888888888888888888888888888888-:-Xo+o++++++++oX +X+X+++X++X++X+++XX+X+X+X++-:$8888888888+:X+++XX++++++X-+8888888888888",
"8888888888888888888888888888888888888888881$:$+XXXX+X++++XX++X+++XX+X+++XX+++++X++$:+18888888888888+-+++++X+++++:+88888888888888",
"88888888888888888888888888888888888888888888,#:-$++X+Xo+X+++X++++++X++++++X+++++-:#,8888888888888888 $-$X++X++:$$888888888888888",
"88888888888888888888888888888888888888888888888;;+:--+oo++XX+++oXX++o+++o++$--$1;888888888888888888888$$+--$$$$88888888888888888",
"888888888888888888888888888888888888888888888888888,$X::---$$-$--$$-$--:--$$=888888888888888888888888888888888888888888888888888",
"8888888888888888888888888888888888888888888888888888888<44 +$$$++$$$$+24<8888888888888888888888888888888888888888888888888888888",
"88888888888888888888888888888888888888888888888888888888888888888888888888888888888888888888888888888888888888888888888888888888",
"88888888888888888888888888888888888888888888888888888888888888888888888888888888888888888888888888888888888888888888888888888888",
"88888888888888888888888888888888888888888888888888888888888888888888888888888888888888888888888888888888888888888888888888888888",
"88888888888888888888888888888888888888888888888888888888888888888888888888888888888888888888888888888888888888888888888888888888",
"88888888888888888888888888888888888888888888888888888888888888888888888888888888888888888888888888888888888888888888888888888888",
"88888888888888888888888888888888888888888888888888888888888888888888888888888888888888888888888888888888888888888888888888888888",
"88888888888888888888888888888888888888888888888888888888888888888888888888888888888888888888888888888888888888888888888888888888",
"88888888888888888888888888888888888888888888888888888888888888888888888888888888888888888888888888888888888888888888888888888888",
"88888888888888888888888888888888888888888888888888888888888888888888888888888888888888888888888888888888888888888888888888888888"
};
