/* XPM */
static char *qbitcoin64[] = {
/* columns rows colors chars-per-pixel */
"64 64 135 2 ",
"   c #F9981F",
".  c #F79724",
"X  c #F79726",
"o  c #F89724",
"O  c #FA9624",
"+  c #FA9724",
"@  c #F89726",
"#  c #F79824",
"$  c #F69925",
"%  c #F79925",
"&  c #F79A25",
"*  c #F69826",
"=  c #F79826",
"-  c #F69927",
";  c #F79927",
":  c #F79B26",
">  c #F79A27",
",  c #F69B27",
"<  c #F79C26",
"1  c #F99821",
"2  c #F89823",
"3  c #F99823",
"4  c #F99923",
"5  c #FA9923",
"6  c #FD9B23",
"7  c #FB9C23",
"8  c #F89825",
"9  c #F99825",
"0  c #F89925",
"q  c #F99925",
"w  c #FB9825",
"e  c #FA9925",
"r  c #F99A24",
"t  c #FA9A24",
"y  c #FB9A24",
"u  c #FA9B24",
"i  c #FB9B24",
"p  c #F99827",
"a  c #F89927",
"s  c #F99927",
"d  c #FA9927",
"f  c #F89B26",
"g  c #F99B26",
"h  c #F89A27",
"j  c #F99A27",
"k  c #FA9A26",
"l  c #FB9A26",
"z  c #FA9B26",
"x  c #FB9B26",
"c  c #FC9925",
"v  c #FD9A24",
"b  c #FE9B25",
"n  c #FD9A26",
"m  c #FD9B26",
"M  c #FE9B27",
"N  c #FB9C25",
"B  c #F89C26",
"V  c #F99C26",
"C  c #FB9C27",
"Z  c #FC9C25",
"A  c #FE9C25",
"S  c #FF9E25",
"D  c #FC9C27",
"F  c #FD9D27",
"G  c #FF9D26",
"H  c #FE9C27",
"J  c #FF9C27",
"K  c #FF9E26",
"L  c #FF9E27",
"P  c #FF9F27",
"I  c #F59928",
"U  c #F79B28",
"Y  c #F69B29",
"T  c #F79C28",
"R  c #F59E28",
"E  c #F79C2A",
"W  c #F79E2A",
"Q  c #F89828",
"!  c #F99B28",
"~  c #F89A29",
"^  c #F99A29",
"/  c #FA9A28",
"(  c #FB9A28",
")  c #FA9B28",
"_  c #FB9B28",
"`  c #F99A2A",
"'  c #F99B2A",
"]  c #FA9B2A",
"[  c #FB9B2A",
"{  c #FD9B28",
"}  c #F89C28",
"|  c #F99C28",
" . c #FB9C29",
".. c #F89E29",
"X. c #F89F29",
"o. c #F89C2A",
"O. c #FB9D2B",
"+. c #F89E2B",
"@. c #FC9C29",
"#. c #FC9D29",
"$. c #FD9D29",
"%. c #FD9E28",
"&. c #FF9E28",
"*. c #FC9C2B",
"=. c #FD9D2B",
"-. c #FC9E2A",
";. c #FA9C2D",
":. c #FB9D2D",
">. c #FB9E2C",
",. c #F99C2F",
"<. c #FC9D2D",
"1. c #FD9E2C",
"2. c #FD9F2C",
"3. c #FC9D2F",
"4. c #FC9E2E",
"5. c #FC9F2E",
"6. c #FB9F32",
"7. c #FC9F30",
"8. c #FFA026",
"9. c #FFA126",
"0. c #FFA027",
"q. c #FFA127",
"w. c #FFA326",
"e. c #FFA227",
"r. c #FFA327",
"t. c #FFA527",
"y. c #FFA626",
"u. c #FFA028",
"i. c #FFA128",
"p. c #FFA029",
"a. c #FFA328",
"s. c #FFA428",
"d. c #FFA728",
"f. c #FFA929",
"g. c None",
/* pixels */
"g.g.g.g.g.g.g.g.g.g.g.g.g.g.g.g.g.g.g.g.g.g.g.g.g.g.g.g.g.g.g.g.g.g.g.g.g.g.g.g.g.g.g.g.g.g.g.g.g.g.g.g.g.g.g.g.g.g.g.g.g.g.g.g.",
"g.g.g.g.g.g.g.g.g.g.g.g.g.g.g.g.g.g.g.g.g.g.g.g.g.g.g.g.g.g.g.g.g.g.g.g.g.g.g.g.g.g.g.g.g.g.g.g.g.g.g.g.g.g.g.g.g.g.g.g.g.g.g.g.",
"g.g.g.g.g.g.g.g.g.g.g.g.g.g.g.g.g.g.g.g.g.g.g.g.g.g.g.g.g.g.g.g.g.g.g.g.g.g.g.g.g.g.g.g.g.g.g.g.g.g.g.g.g.g.g.g.g.g.g.g.g.g.g.g.",
"g.g.g.g.g.g.g.g.g.g.g.g.g.g.g.g.g.g.g.g.g.g.g.g.g.g.g.g.g.g.g.g.g.g.g.g.g.g.g.g.g.g.g.g.g.g.g.g.g.g.g.g.g.g.g.g.g.g.g.g.g.g.g.g.",
"g.g.g.g.g.g.g.g.g.g.g.g.g.g.g.g.g.g.g.g.g.g.g.g.g.g.g.g.g.g.g.g.g.g.g.g.g.g.g.g.g.g.g.g.g.g.g.g.g.g.g.g.g.g.g.g.g.g.g.g.g.g.g.g.",
"g.g.g.g.g.g.g.g.g.g.g.g.g.g.g.g.g.g.g.g.g.g.g.g.g.+. .# $.e.e.S $.u.S V #  .W g.g.g.g.g.g.g.g.g.g.g.g.g.g.g.g.g.g.g.g.g.g.g.g.g.",
"g.g.g.g.g.g.g.g.g.g.g.g.g.g.g.g.g.g.g.g.g.g.# ! s.e.S d . # d d d d . . n S e.e.d , g.g.g.g.g.g.g.g.g.g.g.g.g.g.g.g.g.g.g.g.g.g.",
"g.g.g.g.g.g.g.g.g.g.g.g.g.g.g.g.g.g.g.g.V u.e.2 d # . d d 2 # # # 2 d d # # # d d e.e.V g.g.g.g.g.g.g.g.g.g.g.g.g.g.g.g.g.g.g.g.",
"g.g.g.g.g.g.g.g.g.g.g.g.g.g.g.g.g.g. .u.$.d @ d @ d Y . . d @ @ d . # @ @ # d d # . # $.u. .g.g.g.g.g.g.g.g.g.g.g.g.g.g.g.g.g.g.",
"g.g.g.g.g.g.g.g.g.g.g.g.g.g.g.g.W u.S . # . @ ! @ @ n u.e.e.S e.e.S e.e.u.S . @ # d d @ X S u.W g.g.g.g.g.g.g.g.g.g.g.g.g.g.g.g.",
"g.g.g.g.g.g.g.g.g.g.g.g.g.g.g.! u.# d . d . @ S e.S d S d g.g.g.g.g.g.d $.d S r.S d @ 2 # d # u. .g.g.g.g.g.g.g.g.g.g.g.g.g.g.g.",
"g.g.g.g.g.g.g.g.g.g.g.g.g.g. .S . 2 . d . S u.d 2 g.g.g.g.g.g.g.g.g.g.g.g.g.g.d d e.n d # d # . S  .g.g.g.g.g.g.g.g.g.g.g.g.g.g.",
"g.g.g.g.g.g.g.g.g.g.g.g.g.S n @ @ 2 d 2 u.S g.g.g.g.g.g.g.g.g.g.g.g.g.g.g.g.g.g.g.g.S e.. . # d d n S g.g.g.g.g.g.g.g.g.g.g.g.g.",
"g.g.g.g.g.g.g.g.g.g.g.g.S d d @ @ @ S d d g.g.g.g.g.g.g.g.g.g.g.g.g.g.g.g.g.g.g.g.g.g.d ! S . d # # d S g.g.g.g.g.g.g.g.g.g.g.g.",
"g.g.g.g.g.g.g.g.g.g.g. .n # . # @ e.V g.g.g.g.g.g.g.g.g.g.g.g.g.g.g.g.g.g.g.g.g.g.g.g.g.g.n u.@ . d @ n d g.g.g.g.g.g.g.g.g.g.g.",
"g.g.g.g.g.g.g.g.g.g.d S d . d @ e.$.g.g.g.g.g.g.g.g.g.g.g.g.g.g.g.g.g.g.g.g.g.g.g.g.g.g.g.g.{ e.. # . d S  .g.g.g.g.g.g.g.g.g.g.",
"g.g.g.g.g.g.g.g.g.W u.d . # @ e.S g.g.g.g.g.g.g.g.g.g.g.g.g.g.g.g.g.g.g.g.g.g.g.g.g.g.g.g.g.g.S u.@ d # d u., g.g.g.g.g.g.g.g.g.",
"g.g.g.g.g.g.g.g.g.S # # @ Q e.$.g.g.g.g.g.g.g.g.g.g.g.g.g.g.g.g.g.g.g.g.g.g.g.g.g.g.g.g.g.g.g.g.$.u.@ # # @ e.g.g.g.g.g.g.g.g.g.",
"g.g.g.g.g.g.g.g.V S d @ d S n g.g.g.g.g.g.g.g.d d S g.g.g.g.g.g.g.g.g.g.g.g.g.g.g.g.g.g.g.g.g.g.g.n S d . # S d g.g.g.g.g.g.g.g.",
"g.g.g.g.g.g.g.g.e.. . @ . d g.g.g.g.g.g.g.g.g.f.e.e.u.n d 7 g.g.g.g.g.g.g.g.g.g.g.g.g.g.g.g.g.g.g.g.d . d # . e.g.g.g.g.g.g.g.g.",
"g.g.g.g.g.g.g.V $.@ d . r.d g.g.g.g.g.g.g.g.g.d 6 n d . $.u.e.S d 6 2 g.g.g.g.g.g.g.g.g.g.g.g.g.g.g.V s.@ d . S d g.g.g.g.g.g.g.",
"g.g.g.g.g.g.g.e.d # . S d g.g.g.g.g.g.g.g.g.g.g.g.g.n # d # # . d S e.e.2 n g.g.g.g.g.g.g.g.g.g.g.g.g.d S # d # r.g.g.g.g.g.g.g.",
"g.g.g.g.g.g.Y e.d # . e.g.g.g.g.g.g.g.g.g.g.g.g.g.g.d n . # d n u.u.n . . e.e.n g.g.g.g.g.g.g.g.g.g.g.g.e.d @ # e.W g.g.g.g.g.g.",
"g.g.g.g.g.g.d d # # n S g.g.g.g.g.g.g.g.g.g.g.g.g.g.d n d # S g.g.7.{ S S . d $.s.d g.g.g.g.g.g.g.g.g.g.d n # d @ ! g.g.g.g.g.g.",
"g.g.g.g.g.g.u.# # # r.V g.g.g.g.g.g.g.g.g.g.g.g.g.g.S d d d ! g.g.g.g.g.$.e.. d . r.6 g.g.g.g.g.g.g.g.g.d e.@ # @ e.g.g.g.g.g.g.",
"g.g.g.g.g.W u.d d # S g.g.g.g.g.g.g.g.g.g.g.g.g.g.g.e.# # S $.g.g.g.g.g.g.6.S . d @ s.g.g.g.g.g.g.g.g.g.g.S d d @ e.p.g.g.g.g.g.",
"g.g.g.g.g.! S d @ S @ g.g.g.g.g.g.g.g.g.g.g.g.g.g.V u.d . e.3.g.g.g.g.g.g.g.! d . # e.n g.g.g.g.g.g.g.g.g.d n # 2 S V g.g.g.g.g.",
"g.g.g.g.g.# d # @ $.S g.g.g.g.g.g.g.g.g.g.g.g.g.g.d n # d u.g.g.g.g.g.g.g.g.! S d @ e.7 g.g.g.g.g.g.g.g.g.S u.. d 2 # g.g.g.g.g.",
"g.g.g.g.g.$.# # @ e.d g.g.g.g.g.g.g.g.g.g.g.g.g.g.S . d d ! g.g.g.g.g.g.g.g. .d 2 . e.d g.g.g.g.g.g.g.g.g.@ e.d d X $.g.g.g.g.g.",
"g.g.g.g.g.S # d # e.g.g.g.g.g.g.g.g.g.g.g.g.g.g.g.e.# . d d g.g.g.g.g.g.g. .S @ d 2 e.g.g.g.g.g.g.g.g.g.g.g.e.# d # S g.g.g.g.g.",
"g.g.g.g.g.u.d d d u.g.g.g.g.g.g.g.g.g.g.g.g.g.g.n e.d d d 2 S d ! 3.3.S ! S 2 # @ r.n g.g.g.g.g.g.g.g.g.g.g.S . # d e.g.g.g.g.g.",
"g.g.g.g.g.S . # . S g.g.g.g.g.g.g.g.g.g.g.g.g.g.d n 2 # o e.S S n S S e.d . . d e.d g.g.g.g.g.g.g.g.g.g.g.g.e.d # # $.g.g.g.g.g.",
"g.g.g.g.g.S # # @ S g.g.g.g.g.g.g.g.g.g.g.g.g.g.n d d d Y :.3.! S e.d d 2 # # S g.g.g.g.g.g.g.g.g.g.g.g.g.g.e.@ d # $.g.g.g.g.g.",
"g.g.g.g.g.$.! # @ e.g.g.g.g.g.g.g.g.g.g.g.g.g.g.e.. . S { g.g.g.g.3.d e.2 # d $.n g.g.g.g.g.g.g.g.g.g.g.g.g.S @ 2 d u.g.g.g.g.g.",
"g.g.g.g.g.S # d # u.g.g.g.g.g.g.g.g.g.g.g.g.g.V u.d Q e.! g.g.g.g.g.g.3.$.# d . s.n g.g.g.g.g.g.g.g.g.g.g.g.e.Y d # S g.g.g.g.g.",
"g.g.g.g.g.$.. d d r.d g.g.g.g.g.g.g.g.g.g.g.g.d n # Q u.g.g.g.g.g.g.g.g.6.u.. 2 # r.S g.g.g.g.g.g.g.g.g.g.o e.. 2 #  .g.g.g.g.g.",
"g.g.g.g.g.# d # # u.S g.g.g.g.g.g.g.g.g.g.g.g.$.# # d d g.g.g.g.g.g.g.g.g.! n d 2 n 2 g.g.g.g.g.g.g.g.g.g.S u.. . d W g.g.g.g.g.",
"g.g.g.g.g.! S d # $.d g.g.g.g.g.g.g.g.g.g.g.! S d . e. .g.g.g.g.g.g.g.g.g.$.S . d 2 d g.g.g.g.g.g.g.g.g.g.d S . @ S ! g.g.g.g.g.",
"g.g.g.g.g.W e.# # 2 S g.g.g.g.g.g.g.g.e.d d n # d @ u.:.g.g.g.g.g.g.g.g.g.! d d @ d d g.g.g.g.g.g.g.g.g.g.S d d d e. .g.g.g.g.g.",
"g.g.g.g.g.g.e.. d d r.d g.g.g.g.g.g.d e.. d Q # . # S :.g.g.g.g.g.g.g.g.:.S . . o e.d g.g.g.g.g.g.g.g.g.d r.. @ . e.g.g.g.g.g.g.",
"g.g.g.g.g.g.! d d # n d g.g.g.g.g.g.7 7 n e.e.n # # ! S $.d { $. .! :.! u.# d d . r.g.g.g.g.g.g.g.g.g.g.n { # d 2 ! g.g.g.g.g.g.",
"g.g.g.g.g.g.Y e.# # # e.g.g.g.g.g.g.g.g.g.g.S n S s.$.@ d 2 S e.e.r.u.{ # # # . S d g.g.g.g.g.g.g.g.g.g.u.# # # e.! g.g.g.g.g.g.",
"g.g.g.g.g.g.g.e.d 2 d { V g.g.g.g.g.g.g.g.g.g.g.g.n d d e.e.S d . . . d d 2 # u.S g.g.g.g.g.g.g.g.g.g.S $.d d . u.g.g.g.g.g.g.g.",
"g.g.g.g.g.g.g.d n d . . u.V g.g.g.g.g.g.g.g.g.g.g.g.g.g.g.n d 2 $.e.e.e.r.u.V n g.g.g.g.g.g.g.g.g.g.V u.. 2 . S d g.g.g.g.g.g.g.",
"g.g.g.g.g.g.g.g.r.# d d d d g.g.g.g.g.g.g.g.g.g.g.g.g.g.g.g.g.g.g.g.g.  2 g.g.g.g.g.g.g.g.g.g.g.g.g.d d . # Q e.g.g.g.g.g.g.g.g.",
"g.g.g.g.g.g.g.g.d S # # 2 S n g.g.g.g.g.g.g.g.g.g.g.g.g.g.g.g.g.g.g.g.g.g.g.g.g.g.g.g.g.g.g.S e.d d d . d # S d g.g.g.g.g.g.g.g.",
"g.g.g.g.g.g.g.g.g.e.. # # @ u.$.g.g.g.g.g.g.g.g.g.g.g.g.g.g.g.g.g.g.g.g.g.g.g.g.g.g.g.g.g.2 S . d d 2 d # # r.g.g.g.g.g.g.g.g.g.",
"g.g.g.g.g.g.g.g.g.+.u.# 2 d . e.$.g.g.g.g.g.g.g.g.g.g.g.g.g.g.g.g.g.g.g.g.g.g.g.g.g.g.g.g.d d d 2 # # 2 d S W g.g.g.g.g.g.g.g.g.",
"g.g.g.g.g.g.g.g.g.g. .S # # d . u.$.g.g.g.g.g.g.g.g.g.g.g.g.g.g.g.g.g.g.g.g.g.g.g.g.g.g.g.d S d # # d . # ! ! g.g.g.g.g.g.g.g.g.",
"g.g.g.g.g.g.g.g.g.g.g. .n # d # @ u.n g.g.g.g.g.g.g.g.g.g.g.g.g.g.g.g.g.g.g.g.g.g.g.g.g.g.d S # d . d # # Y u.S V g.g.g.g.g.g.g.",
"g.g.g.g.g.g.g.g.g.g.g.g.n ! . # # . S d $.g.g.g.g.g.g.g.g.g.g.g.g.g.g.g.g.g.g.g.g.g.g.S d S d . d # . # # # . d s.S g.g.g.g.g.g.",
"g.g.g.g.g.g.g.g.g.g.g.g.g.S n d d # # d e.d g.g.g.g.g.g.g.g.g.g.g.g.g.g.g.g.g.g.g.g.d e.d d # . . . . Y . d # # d V g.g.g.g.g.g.",
"g.g.g.g.g.g.g.g.g.g.g.g.g.g.{ S # # ! # # n e.n d g.g.g.g.g.g.g.g.g.g.g.g.g.g.d d e.S . d # Y d d . # # # # d . @ e.g.g.g.g.g.g.",
"g.g.g.g.g.g.g.g.g.g.g.g.g.g.g. .u.. # d d d @ n r.S d { d g.g.g.g.g.g.d n d S e.S @ d @ # . @ S . Y d # . d # . d e.@ g.g.g.g.g.",
"g.g.g.g.g.g.g.g.g.g.g.g.g.g.g.g. .e.S . # d # Y d d S u.e.u.e.e.S e.e.r.u.$.. d ! # . d . S S W Y d o 2 # # d d . e.g.g.g.g.g.g.",
"g.g.g.g.g.g.g.g.g.g.g.g.g.g.g.g.g.g.! e.S . d # 2 # . . # # @ @ @ . . d d # # @ . # d n e. .g.g.n e.d . d . . # d d g.g.g.g.g.g.",
"g.g.g.g.g.g.g.g.g.g.g.g.g.g.g.g.g.g.g.g.V s.S d # d # # # d # # d # d d # # d . @ S u.V g.g.g.g.g.n e.@ @ @ d V r.g.g.g.g.g.g.g.",
"g.g.g.g.g.g.g.g.g.g.g.g.g.g.g.g.g.g.g.g.g.g.W ! e.u.S d # # d d d # # . d S e.e.! W g.g.g.g.g.g.g.g.d e.e.e.e.d g.g.g.g.g.g.g.g.",
"g.g.g.g.g.g.g.g.g.g.g.g.g.g.g.g.g.g.g.g.g.g.g.g.g. .! d $.S S u.S e.S $.d ! W g.g.g.g.g.g.g.g.g.g.g.g.g.  o g.g.g.g.g.g.g.g.g.g.",
"g.g.g.g.g.g.g.g.g.g.g.g.g.g.g.g.g.g.g.g.g.g.g.g.g.g.g.g.g.g.g.g.g.g.g.g.g.g.g.g.g.g.g.g.g.g.g.g.g.g.g.g.g.g.g.g.g.g.g.g.g.g.g.g.",
"g.g.g.g.g.g.g.g.g.g.g.g.g.g.g.g.g.g.g.g.g.g.g.g.g.g.g.g.g.g.g.g.g.g.g.g.g.g.g.g.g.g.g.g.g.g.g.g.g.g.g.g.g.g.g.g.g.g.g.g.g.g.g.g.",
"g.g.g.g.g.g.g.g.g.g.g.g.g.g.g.g.g.g.g.g.g.g.g.g.g.g.g.g.g.g.g.g.g.g.g.g.g.g.g.g.g.g.g.g.g.g.g.g.g.g.g.g.g.g.g.g.g.g.g.g.g.g.g.g.",
"g.g.g.g.g.g.g.g.g.g.g.g.g.g.g.g.g.g.g.g.g.g.g.g.g.g.g.g.g.g.g.g.g.g.g.g.g.g.g.g.g.g.g.g.g.g.g.g.g.g.g.g.g.g.g.g.g.g.g.g.g.g.g.g.",
"g.g.g.g.g.g.g.g.g.g.g.g.g.g.g.g.g.g.g.g.g.g.g.g.g.g.g.g.g.g.g.g.g.g.g.g.g.g.g.g.g.g.g.g.g.g.g.g.g.g.g.g.g.g.g.g.g.g.g.g.g.g.g.g."
};
